<?xml version="1.0" encoding="utf-8"?>
<!-- Generator: Adobe Illustrator 27.1.1, SVG Export Plug-In . SVG Version: 6.00 Build 0)  -->
<svg version="1.1" id="Layer_1" xmlns="http://www.w3.org/2000/svg" xmlns:xlink="http://www.w3.org/1999/xlink" x="0px" y="0px"
	 viewBox="0 0 360 360" style="enable-background:new 0 0 360 360;" xml:space="preserve">
<style type="text/css">
	.st0{fill:rgba(255,255,255,0);}
	.st1{fill:#8CE5FB;}
	.st2{fill:#3B4EF5;}
	.st3{fill:#4DCEA9;}
	.st4{fill:#0A169A;}
</style>
<rect class="st0" width="360" height="360"/>
<g>
	<g>
		<g>
			<g>
				<path class="st1" d="M93.14,224.42c0,6.17,7.32,11.47,13.49,9.33l130.72-45.93c6.17-2.14,11.16-8.88,11.16-15.04V46.25
					c0-6.17-5-9.43-11.16-7.29L104.31,85.18c-6.17,2.14-11.16,8.88-11.16,15.04V224.42z"/>
				<path class="st2" d="M93.14,230.18c0,6.44,7.65,12.92,14.1,11.47l136.62-31.26c6.44-1.45,11.67-7.85,11.67-14.29V63.86
					c0-6.44-5.22-10.49-11.67-9.05L104.81,86.08c-6.44,1.45-11.67,7.85-11.67,14.29V230.18z"/>
				<path class="st3" d="M93.14,233.13c0,6.62,7.86,14.22,14.48,13.53l140.34-15.22c6.62-0.69,11.99-6.62,11.99-13.24V82.36
					c0-6.62-5.37-11.43-11.99-10.73L105.13,86.54c-6.62,0.69-11.99,6.62-11.99,13.24V233.13z"/>
				<path class="st4" d="M93.14,237.3c0,6.69,5.42,12.11,12.11,12.11h144.27c6.69,0,12.11-5.42,12.11-12.11V100.09
					c0-6.69-5.42-12.11-12.11-12.11H105.25c-6.69,0-12.11,5.42-12.11,12.11V237.3z"/>
				<g>
					<path class="st3" d="M109.97,134.13c0-2.89-2.36-5.25-5.26-5.25H83.2c-2.89,0-5.25,2.35-5.25,5.25c0,2.89,2.35,5.25,5.25,5.25
						h21.51C107.61,139.38,109.97,137.03,109.97,134.13z"/>
					<path class="st3" d="M83.2,117.17h21.51c2.9,0,5.26-2.36,5.26-5.25c0-2.89-2.36-5.25-5.26-5.25H83.2
						c-2.89,0-5.25,2.35-5.25,5.25C77.95,114.81,80.3,117.17,83.2,117.17z"/>
					<path class="st3" d="M109.97,178.57c0-2.89-2.36-5.25-5.26-5.25H83.2c-2.89,0-5.25,2.35-5.25,5.25c0,2.89,2.35,5.25,5.25,5.25
						h21.51C107.61,183.82,109.97,181.47,109.97,178.57z"/>
					<path class="st3" d="M83.2,161.6h21.51c2.9,0,5.26-2.36,5.26-5.25c0-2.89-2.36-5.25-5.26-5.25H83.2
						c-2.89,0-5.25,2.35-5.25,5.25C77.95,159.25,80.3,161.6,83.2,161.6z"/>
					<path class="st3" d="M109.97,223.01c0-2.89-2.36-5.25-5.26-5.25H83.2c-2.89,0-5.25,2.35-5.25,5.25c0,2.89,2.35,5.25,5.25,5.25
						h21.51C107.61,228.26,109.97,225.9,109.97,223.01z"/>
					<path class="st3" d="M83.2,206.04h21.51c2.9,0,5.26-2.36,5.26-5.25c0-2.89-2.36-5.25-5.26-5.25H83.2
						c-2.89,0-5.25,2.35-5.25,5.25C77.95,203.69,80.3,206.04,83.2,206.04z"/>
				</g>
			</g>
		</g>
	</g>
	<g>
		<g>
			<rect x="90.85" y="283.58" class="st4" width="6.64" height="22.79"/>
			<path class="st4" d="M96.58,276.11c-0.3-0.3-0.66-0.55-1.07-0.74c-0.83-0.37-1.86-0.37-2.68,0c-0.41,0.18-0.77,0.43-1.09,0.73
				c-0.32,0.31-0.57,0.67-0.74,1.08c-0.17,0.41-0.26,0.86-0.26,1.34c0,0.95,0.34,1.77,1,2.43c0.66,0.66,1.48,1,2.43,1
				c0.47,0,0.92-0.09,1.33-0.26c0.41-0.17,0.78-0.42,1.08-0.74c0.3-0.32,0.55-0.68,0.73-1.09c0.19-0.41,0.28-0.86,0.28-1.34
				s-0.09-0.93-0.28-1.34C97.13,276.77,96.88,276.41,96.58,276.11z"/>
			<path class="st4" d="M108.84,283.85c-1.44,0.63-2.7,1.51-3.74,2.6c-1.04,1.09-1.86,2.39-2.43,3.84
				c-0.57,1.46-0.87,3.03-0.87,4.68v11.42h6.69v-11.42c0-0.82,0.16-1.6,0.48-2.33c0.32-0.73,0.75-1.36,1.27-1.89
				c0.53-0.53,1.17-0.96,1.89-1.27c0.72-0.32,1.51-0.48,2.33-0.48h0.24v-6.11h-1.07C111.9,282.9,110.28,283.22,108.84,283.85z"/>
			<path class="st4" d="M152.77,286.45c-0.99-1.1-2.2-1.97-3.6-2.6c-1.4-0.63-3-0.95-4.74-0.95c-1.66,0-3.22,0.35-4.64,1.04
				c-1.33,0.65-2.49,1.52-3.43,2.6c-0.95-1.08-2.1-1.95-3.43-2.6c-1.42-0.69-2.98-1.04-4.64-1.04c-1.74,0-3.33,0.32-4.74,0.95
				c-1.4,0.63-2.61,1.51-3.6,2.6c-0.98,1.09-1.75,2.39-2.28,3.85c-0.53,1.45-0.8,3.03-0.8,4.68v11.42h6.69v-11.42
				c0-0.83,0.1-1.63,0.28-2.36c0.18-0.72,0.48-1.36,0.87-1.88c0.39-0.52,0.89-0.94,1.47-1.26c0.58-0.31,1.29-0.47,2.1-0.47
				c0.81,0,1.52,0.16,2.1,0.47c0.59,0.31,1.08,0.74,1.47,1.26c0.39,0.52,0.69,1.16,0.87,1.88c0.19,0.74,0.28,1.53,0.28,2.36v11.42
				h6.69v-11.42c0-0.83,0.1-1.63,0.28-2.36c0.18-0.72,0.48-1.36,0.87-1.88c0.39-0.52,0.89-0.94,1.47-1.26
				c0.58-0.31,1.29-0.47,2.1-0.47c0.81,0,1.52,0.16,2.1,0.47c0.59,0.31,1.08,0.74,1.47,1.26c0.39,0.52,0.69,1.16,0.87,1.88
				c0.19,0.74,0.28,1.53,0.28,2.36v11.42h6.69v-11.42c0-1.65-0.27-3.22-0.8-4.68C154.52,288.84,153.76,287.55,152.77,286.45z"/>
			<polygon class="st4" points="187.05,283.56 182.24,296.01 177.32,283.56 172.85,283.56 167.92,296.01 163.12,283.56
				155.85,283.56 165.28,306.39 170.57,306.39 175.08,294.93 179.6,306.39 184.89,306.39 194.32,283.56 			"/>
			<path class="st4" d="M215.81,286.44c-1.14-1.09-2.48-1.97-3.99-2.59c-1.51-0.63-3.16-0.95-4.89-0.95c-1.74,0-3.38,0.32-4.89,0.95
				c-1.51,0.63-2.85,1.5-3.99,2.59c-1.14,1.09-2.04,2.39-2.7,3.84c-0.66,1.46-0.99,3.04-0.99,4.69c0,1.66,0.33,3.24,0.99,4.69
				c0.66,1.46,1.57,2.75,2.7,3.84c1.13,1.09,2.47,1.96,3.99,2.59c1.51,0.63,3.16,0.95,4.89,0.95c1.74,0,3.38-0.32,4.89-0.95
				c1.51-0.63,2.85-1.5,3.99-2.59c1.13-1.09,2.04-2.38,2.7-3.84c0.66-1.46,0.99-3.04,0.99-4.69c0-1.65-0.33-3.23-0.99-4.69
				C217.85,288.82,216.94,287.53,215.81,286.44z M212.81,294.98c0,0.82-0.15,1.6-0.46,2.33c-0.3,0.73-0.73,1.36-1.25,1.89
				c-0.53,0.53-1.16,0.96-1.87,1.28c-1.42,0.63-3.19,0.63-4.61,0c-0.71-0.32-1.34-0.75-1.87-1.28c-0.53-0.53-0.95-1.16-1.25-1.89
				c-0.3-0.73-0.46-1.51-0.46-2.33c0-0.82,0.15-1.6,0.46-2.33c0.3-0.73,0.72-1.36,1.25-1.89c0.53-0.53,1.16-0.96,1.87-1.28
				c0.71-0.32,1.49-0.48,2.3-0.48c0.82,0,1.59,0.16,2.3,0.48c0.71,0.32,1.34,0.75,1.87,1.28c0.53,0.53,0.95,1.16,1.25,1.89
				C212.66,293.37,212.81,294.16,212.81,294.98z"/>
			<path class="st4" d="M229.34,283.85c-1.44,0.63-2.7,1.51-3.74,2.6c-1.04,1.09-1.85,2.39-2.43,3.84
				c-0.57,1.46-0.87,3.03-0.87,4.68v11.42h6.69v-11.42c0-0.82,0.16-1.6,0.48-2.33c0.32-0.73,0.75-1.36,1.27-1.89
				c0.53-0.53,1.16-0.96,1.89-1.27c0.72-0.32,1.51-0.48,2.33-0.48h0.24v-6.11h-1.07C232.39,282.9,230.78,283.22,229.34,283.85z"/>
			<polygon class="st4" points="260.6,282.9 252.51,282.9 245.28,291.71 245.28,275.04 238.59,275.04 238.59,306.39 245.28,306.39
				245.28,295.06 253.98,306.39 262.13,306.39 251.76,293.33 			"/>
			<path class="st4" d="M280.28,296.58c-0.4-0.76-0.93-1.41-1.57-1.94c-0.64-0.52-1.37-0.95-2.17-1.28
				c-0.8-0.32-1.64-0.53-2.48-0.62c-0.59-0.08-1.19-0.2-1.79-0.35c-0.59-0.15-1.13-0.34-1.61-0.56c-0.47-0.22-0.85-0.47-1.14-0.74
				c-0.26-0.24-0.38-0.49-0.38-0.76c0-0.66,0.22-1.09,0.68-1.34c0.5-0.27,1.08-0.41,1.73-0.41c0.64,0,1.22,0.16,1.72,0.46
				c0.47,0.29,0.69,0.84,0.69,1.7v0.24h6.69v-0.24c0-1.22-0.25-2.33-0.73-3.31c-0.48-0.98-1.15-1.81-1.99-2.48
				c-0.83-0.66-1.81-1.18-2.91-1.53c-1.09-0.35-2.26-0.53-3.47-0.53c-1.23,0-2.41,0.18-3.49,0.53c-1.08,0.35-2.06,0.86-2.89,1.51
				c-0.84,0.65-1.51,1.46-1.99,2.4c-0.48,0.94-0.73,2.01-0.73,3.17c0,0.93,0.26,1.8,0.76,2.59c0.5,0.78,1.16,1.48,1.96,2.07
				c0.8,0.59,1.74,1.09,2.79,1.48c1.05,0.39,2.13,0.66,3.22,0.8c0.9,0.13,1.65,0.4,2.22,0.79c0.54,0.37,0.81,0.76,0.81,1.21
				c0,0.63-0.27,1.09-0.81,1.41c-0.86,0.5-1.82,0.61-2.81,0.41c-0.31-0.06-0.6-0.18-0.85-0.34c-0.24-0.16-0.45-0.38-0.61-0.66
				c-0.16-0.28-0.24-0.63-0.24-1.06v-0.24h-6.69v0.24c0,1.25,0.26,2.37,0.77,3.34c0.51,0.97,1.21,1.79,2.07,2.46
				c0.86,0.66,1.86,1.18,2.97,1.53c1.11,0.35,2.3,0.53,3.53,0.53c1.21,0,2.39-0.18,3.51-0.53c1.13-0.35,2.13-0.87,2.99-1.53
				c0.86-0.67,1.56-1.49,2.07-2.46c0.51-0.97,0.77-2.09,0.77-3.34C280.89,298.22,280.68,297.34,280.28,296.58z"/>
			<path class="st4" d="M87.2,283.56h-4.21c-0.03-0.99,1.05-1.83,1.85-2.21c0.73-0.35,1.55-0.48,2.36-0.46c0,0,0-0.06,0-0.14v-5.65
				h-0.99c-2.68,0-5.55,0.88-7.47,2.8c-0.75,0.75-1.35,1.64-1.79,2.66c-0.44,1.02-0.66,2.11-0.66,3.24v22.59h6.69v-17.06h4.22v-5.33
				L87.2,283.56z"/>
		</g>
	</g>
</g>
</svg>
